G04*
G04 #@! TF.GenerationSoftware,Altium Limited,Altium Designer,19.0.10 (269)*
G04*
G04 Layer_Physical_Order=1*
G04 Layer_Color=255*
%FSLAX44Y44*%
%MOMM*%
G71*
G01*
G75*
%ADD10C,0.8890*%
%ADD11R,0.4000X1.1000*%
%ADD12R,0.3000X1.4000*%
%ADD13R,1.1000X0.6000*%
%ADD14R,3.6000X3.6000*%
%ADD15R,0.3000X0.8500*%
%ADD16R,0.8500X0.3000*%
G04:AMPARAMS|DCode=17|XSize=0.6mm|YSize=0.6mm|CornerRadius=0.075mm|HoleSize=0mm|Usage=FLASHONLY|Rotation=0.000|XOffset=0mm|YOffset=0mm|HoleType=Round|Shape=RoundedRectangle|*
%AMROUNDEDRECTD17*
21,1,0.6000,0.4500,0,0,0.0*
21,1,0.4500,0.6000,0,0,0.0*
1,1,0.1500,0.2250,-0.2250*
1,1,0.1500,-0.2250,-0.2250*
1,1,0.1500,-0.2250,0.2250*
1,1,0.1500,0.2250,0.2250*
%
%ADD17ROUNDEDRECTD17*%
G04:AMPARAMS|DCode=18|XSize=0.6mm|YSize=0.6mm|CornerRadius=0.075mm|HoleSize=0mm|Usage=FLASHONLY|Rotation=270.000|XOffset=0mm|YOffset=0mm|HoleType=Round|Shape=RoundedRectangle|*
%AMROUNDEDRECTD18*
21,1,0.6000,0.4500,0,0,270.0*
21,1,0.4500,0.6000,0,0,270.0*
1,1,0.1500,-0.2250,-0.2250*
1,1,0.1500,-0.2250,0.2250*
1,1,0.1500,0.2250,0.2250*
1,1,0.1500,0.2250,-0.2250*
%
%ADD18ROUNDEDRECTD18*%
G04:AMPARAMS|DCode=19|XSize=0.875mm|YSize=0.775mm|CornerRadius=0.0969mm|HoleSize=0mm|Usage=FLASHONLY|Rotation=270.000|XOffset=0mm|YOffset=0mm|HoleType=Round|Shape=RoundedRectangle|*
%AMROUNDEDRECTD19*
21,1,0.8750,0.5813,0,0,270.0*
21,1,0.6813,0.7750,0,0,270.0*
1,1,0.1938,-0.2906,-0.3406*
1,1,0.1938,-0.2906,0.3406*
1,1,0.1938,0.2906,0.3406*
1,1,0.1938,0.2906,-0.3406*
%
%ADD19ROUNDEDRECTD19*%
G04:AMPARAMS|DCode=20|XSize=0.3mm|YSize=0.3mm|CornerRadius=0.0375mm|HoleSize=0mm|Usage=FLASHONLY|Rotation=270.000|XOffset=0mm|YOffset=0mm|HoleType=Round|Shape=RoundedRectangle|*
%AMROUNDEDRECTD20*
21,1,0.3000,0.2250,0,0,270.0*
21,1,0.2250,0.3000,0,0,270.0*
1,1,0.0750,-0.1125,-0.1125*
1,1,0.0750,-0.1125,0.1125*
1,1,0.0750,0.1125,0.1125*
1,1,0.0750,0.1125,-0.1125*
%
%ADD20ROUNDEDRECTD20*%
G04:AMPARAMS|DCode=21|XSize=0.3mm|YSize=0.3mm|CornerRadius=0.0375mm|HoleSize=0mm|Usage=FLASHONLY|Rotation=0.000|XOffset=0mm|YOffset=0mm|HoleType=Round|Shape=RoundedRectangle|*
%AMROUNDEDRECTD21*
21,1,0.3000,0.2250,0,0,0.0*
21,1,0.2250,0.3000,0,0,0.0*
1,1,0.0750,0.1125,-0.1125*
1,1,0.0750,-0.1125,-0.1125*
1,1,0.0750,-0.1125,0.1125*
1,1,0.0750,0.1125,0.1125*
%
%ADD21ROUNDEDRECTD21*%
%ADD22C,0.2500*%
%ADD23C,0.5588*%
%ADD24C,0.4572*%
%ADD25C,0.2540*%
%ADD26C,1.5200*%
%ADD27C,1.0000*%
%ADD28C,0.6000*%
G36*
X236592Y482323D02*
X248234Y480479D01*
X258812Y477940D01*
X259463Y476849D01*
X248056Y433832D01*
X256864Y430844D01*
X266129Y426720D01*
X274800Y421640D01*
X284480Y414772D01*
X292608Y407496D01*
X299720Y399823D01*
X305483Y391958D01*
X310896Y383308D01*
X313944Y377386D01*
X316992Y369892D01*
X320040Y359908D01*
X322072Y350892D01*
X323088Y340521D01*
Y325120D01*
X322072Y316992D01*
X320847Y309905D01*
X319213Y303680D01*
X317799Y303289D01*
X317796Y303290D01*
X303784Y316992D01*
X275320Y344827D01*
X265001Y344857D01*
X264380Y346129D01*
X264545Y346376D01*
X264720Y347254D01*
Y351754D01*
X264545Y352632D01*
X264048Y353376D01*
X263304Y353873D01*
X262426Y354048D01*
X259169D01*
X258643Y355318D01*
X260409Y357084D01*
X261017Y357993D01*
X261051Y358168D01*
X262426D01*
X263304Y358343D01*
X264048Y358840D01*
X264545Y359584D01*
X264720Y360462D01*
Y364962D01*
X264545Y365840D01*
X264048Y366584D01*
X263304Y367081D01*
X262426Y367256D01*
X260074D01*
X259438Y368526D01*
X259833Y369052D01*
X267421D01*
X268494Y369266D01*
X269404Y369873D01*
X271123Y371593D01*
X271731Y372503D01*
X271944Y373576D01*
Y374798D01*
X272904Y374989D01*
X273721Y375535D01*
X274267Y376352D01*
X274458Y377315D01*
Y382679D01*
X277643Y385863D01*
X278250Y386773D01*
X278464Y387846D01*
Y402092D01*
X278250Y403165D01*
X277643Y404075D01*
X274800Y406917D01*
Y409746D01*
X274625Y410624D01*
X274128Y411368D01*
X273384Y411865D01*
X272506Y412040D01*
X268006D01*
X267128Y411865D01*
X266384Y411368D01*
X265887Y410624D01*
X265712Y409746D01*
Y405246D01*
X265887Y404368D01*
X266384Y403624D01*
X267128Y403127D01*
X268006Y402952D01*
X270835D01*
X272518Y401269D01*
X272464Y399823D01*
X271941Y399394D01*
X266129D01*
X265166Y399203D01*
X265144Y399188D01*
X264160Y398743D01*
X263176Y399188D01*
X263155Y399203D01*
X262191Y399394D01*
X261478D01*
Y403318D01*
X261936Y403624D01*
X262433Y404368D01*
X262608Y405246D01*
Y409746D01*
X262433Y410624D01*
X261936Y411368D01*
X261192Y411865D01*
X260314Y412040D01*
X255814D01*
X254936Y411865D01*
X254192Y411368D01*
X253695Y410624D01*
X253520Y409746D01*
Y405246D01*
X253695Y404368D01*
X254192Y403624D01*
X254936Y403127D01*
X255814Y402952D01*
X255871D01*
Y399293D01*
X255415Y399203D01*
X254599Y398657D01*
X254053Y397840D01*
X253862Y396877D01*
Y391513D01*
X248764Y386416D01*
X248157Y385506D01*
X248056Y385464D01*
X246753Y386335D01*
X244997Y386684D01*
X243241Y386335D01*
X242222Y385654D01*
X241605Y385418D01*
X240622Y385935D01*
X240600Y385968D01*
X239856Y386465D01*
X238978Y386640D01*
X234478D01*
X233600Y386465D01*
X232856Y385968D01*
X232674Y385696D01*
X231404Y386081D01*
Y399954D01*
X231844Y400248D01*
X232839Y401736D01*
X233188Y403492D01*
X232839Y405248D01*
X231844Y406737D01*
X231404Y407031D01*
Y413512D01*
X231190Y414585D01*
X230583Y415495D01*
X216055Y430023D01*
X215145Y430630D01*
X214072Y430844D01*
X200040D01*
Y432540D01*
X186040D01*
Y423540D01*
X200040D01*
Y425236D01*
X212911D01*
X225796Y412351D01*
Y407031D01*
X225356Y406737D01*
X224361Y405248D01*
X224012Y403492D01*
X224361Y401736D01*
X225356Y400248D01*
X225796Y399954D01*
Y378908D01*
X224973Y378086D01*
X224366Y377176D01*
X224152Y376103D01*
Y372642D01*
X218956D01*
Y361142D01*
X238206D01*
Y351892D01*
Y341892D01*
X239776D01*
Y337892D01*
X238206D01*
Y331892D01*
Y323642D01*
X200706D01*
Y331892D01*
Y341892D01*
Y351892D01*
Y361142D01*
X214956D01*
Y372642D01*
X214510D01*
Y379528D01*
X214761Y379904D01*
X214936Y380782D01*
Y385282D01*
X214761Y386160D01*
X214264Y386904D01*
X213520Y387402D01*
X213236Y387458D01*
Y390782D01*
X213600Y390855D01*
X214344Y391352D01*
X214841Y392096D01*
X215016Y392974D01*
Y397474D01*
X214841Y398352D01*
X214344Y399096D01*
X213600Y399594D01*
X213276Y399658D01*
Y401974D01*
X213062Y403047D01*
X212455Y403957D01*
X211758Y404654D01*
Y405666D01*
X211748Y405715D01*
Y409666D01*
X211573Y410544D01*
X211076Y411288D01*
X210332Y411785D01*
X209454Y411960D01*
X204954D01*
X204076Y411785D01*
X203332Y411288D01*
X202864Y410589D01*
X202576Y410544D01*
X201837D01*
X201548Y410589D01*
X201081Y411288D01*
X200337Y411785D01*
X199459Y411960D01*
X194959D01*
X194081Y411785D01*
X193337Y411288D01*
X192839Y410544D01*
X192665Y409666D01*
Y405166D01*
X192839Y404288D01*
X193337Y403544D01*
X194081Y403047D01*
X194353Y402993D01*
Y398652D01*
X193976Y398577D01*
X193232Y398080D01*
X192735Y397336D01*
X192560Y396458D01*
Y391958D01*
X192735Y391080D01*
X193232Y390336D01*
X193931Y389869D01*
X193976Y389580D01*
Y388841D01*
X193931Y388553D01*
X193232Y388085D01*
X192735Y387341D01*
X192560Y386463D01*
Y381963D01*
X192735Y381085D01*
X193232Y380341D01*
X193976Y379844D01*
X194854Y379669D01*
X197683D01*
X203440Y373912D01*
X202914Y372642D01*
X201977D01*
X201706Y372696D01*
X195803D01*
X190597Y377903D01*
X189687Y378510D01*
X188614Y378724D01*
X186298D01*
X186233Y379048D01*
X185736Y379792D01*
X184992Y380289D01*
X184730Y380341D01*
X184721Y381561D01*
X185108Y381820D01*
X186103Y383308D01*
X186452Y385064D01*
X186103Y386820D01*
X185108Y388308D01*
X183620Y389303D01*
X181864Y389652D01*
X180108Y389303D01*
X178620Y388308D01*
X177625Y386820D01*
X177276Y385064D01*
X177625Y383308D01*
X178620Y381820D01*
X179007Y381561D01*
X178998Y380341D01*
X178736Y380289D01*
X177992Y379792D01*
X177495Y379048D01*
X177320Y378170D01*
Y373670D01*
X177495Y372792D01*
X177992Y372048D01*
X178736Y371551D01*
X179614Y371376D01*
X184114D01*
X184992Y371551D01*
X185736Y372048D01*
X186233Y372792D01*
X186261Y372928D01*
X187505Y373064D01*
X192659Y367909D01*
X193569Y367302D01*
X194642Y367088D01*
X198956D01*
Y362892D01*
X193171D01*
X190517Y365547D01*
X189607Y366154D01*
X188534Y366368D01*
X186328D01*
Y366994D01*
X186153Y367872D01*
X185656Y368616D01*
X184912Y369113D01*
X184034Y369288D01*
X179534D01*
X178656Y369113D01*
X177912Y368616D01*
X177415Y367872D01*
X177240Y366994D01*
Y362494D01*
X177415Y361616D01*
X177912Y360872D01*
X178656Y360374D01*
X179534Y360200D01*
X184034D01*
X184912Y360374D01*
X185489Y360760D01*
X187373D01*
X189206Y358927D01*
Y357446D01*
X185648D01*
X184912Y357937D01*
X184034Y358112D01*
X179534D01*
X178656Y357937D01*
X177912Y357440D01*
X177441Y356735D01*
X177199Y356696D01*
X176369D01*
X176127Y356735D01*
X175656Y357440D01*
X174912Y357937D01*
X174034Y358112D01*
X169534D01*
X168656Y357937D01*
X167912Y357440D01*
X167415Y356696D01*
X167313Y356186D01*
X165034D01*
X163961Y355973D01*
X163051Y355365D01*
X160616Y352929D01*
X160419D01*
X159687Y352783D01*
X159570Y352705D01*
X158300Y353332D01*
Y355765D01*
X158339Y355823D01*
X158485Y356555D01*
Y358805D01*
X158339Y359537D01*
X157925Y360157D01*
Y361203D01*
X158339Y361823D01*
X158485Y362555D01*
Y364805D01*
X158339Y365537D01*
X158252Y365667D01*
Y367337D01*
X158692Y367632D01*
X159687Y369120D01*
X160036Y370876D01*
X159687Y372632D01*
X158692Y374120D01*
X157204Y375115D01*
X155448Y375464D01*
X153692Y375115D01*
X152204Y374120D01*
X151209Y372632D01*
X150860Y370876D01*
X151209Y369120D01*
X152204Y367632D01*
X152644Y367337D01*
Y365667D01*
X152557Y365537D01*
X152411Y364805D01*
Y362555D01*
X152557Y361823D01*
X152971Y361203D01*
Y360157D01*
X152557Y359537D01*
X152411Y358805D01*
Y356555D01*
X152557Y355823D01*
X152692Y355621D01*
Y351808D01*
X152653Y351749D01*
X152507Y351017D01*
Y348767D01*
X152652Y348039D01*
Y344444D01*
X143092D01*
Y346182D01*
X143336Y346231D01*
X144080Y346728D01*
X144577Y347472D01*
X144752Y348350D01*
Y352850D01*
X144577Y353728D01*
X144080Y354472D01*
X143336Y354969D01*
X142458Y355144D01*
X137958D01*
X137080Y354969D01*
X136336Y354472D01*
X135838Y353728D01*
X135787Y353466D01*
X134567Y353457D01*
X134308Y353844D01*
X132820Y354839D01*
X131064Y355188D01*
X129308Y354839D01*
X127820Y353844D01*
X126825Y352356D01*
X126476Y350600D01*
X126825Y348844D01*
X127820Y347356D01*
X129308Y346361D01*
X131064Y346012D01*
X132820Y346361D01*
X134308Y347356D01*
X134567Y347743D01*
X135787Y347734D01*
X135838Y347472D01*
X136336Y346728D01*
X137080Y346231D01*
X137484Y346150D01*
Y344444D01*
X137368D01*
Y327444D01*
X147564D01*
Y300444D01*
X137368D01*
Y294748D01*
X130891D01*
X130596Y295188D01*
X129108Y296183D01*
X127352Y296532D01*
X125596Y296183D01*
X124108Y295188D01*
X123113Y293700D01*
X122764Y291944D01*
X123113Y290188D01*
X124108Y288700D01*
X125596Y287705D01*
X127352Y287356D01*
X129108Y287705D01*
X130596Y288700D01*
X130891Y289140D01*
X137368D01*
Y287401D01*
X136778Y286517D01*
X136564Y285444D01*
Y281387D01*
X136477Y281257D01*
X136331Y280525D01*
Y278275D01*
X136366Y278102D01*
X135223Y277338D01*
X134916Y277543D01*
X133160Y277892D01*
X131404Y277543D01*
X129916Y276548D01*
X128921Y275060D01*
X128572Y273304D01*
X128921Y271548D01*
X129916Y270060D01*
X131404Y269065D01*
X133160Y268716D01*
X134916Y269065D01*
X136404Y270060D01*
X137383Y270413D01*
X138115Y270267D01*
X140365D01*
X141097Y270413D01*
X141717Y270827D01*
X142763D01*
X143308Y270464D01*
X143393Y270369D01*
X143696Y269056D01*
X138353Y263713D01*
X133066D01*
X131993Y263500D01*
X131083Y262892D01*
X123838Y255647D01*
X123572Y255769D01*
X121884Y256051D01*
X120181Y255887D01*
X118577Y255288D01*
X117184Y254294D01*
X116095Y252973D01*
X115386Y251416D01*
X115103Y249728D01*
X115267Y248024D01*
X115867Y246421D01*
X116861Y245028D01*
X118181Y243939D01*
X119739Y243230D01*
X121426Y242947D01*
X123130Y243111D01*
X124047Y242128D01*
X123765Y240440D01*
X123929Y238736D01*
X124528Y237133D01*
X125522Y235740D01*
X126842Y234651D01*
X128400Y233941D01*
X130088Y233659D01*
X131791Y233823D01*
X133395Y234422D01*
X134788Y235416D01*
X135877Y236737D01*
X136586Y238294D01*
X136869Y239982D01*
X136705Y241686D01*
X136447Y242376D01*
X145267Y251196D01*
X176944D01*
Y247000D01*
X183944D01*
Y261000D01*
X176944D01*
Y256804D01*
X144106D01*
X143033Y256590D01*
X142123Y255983D01*
X132500Y246359D01*
X132233Y246481D01*
X130546Y246763D01*
X128842Y246599D01*
X127925Y247582D01*
X128207Y249270D01*
X128043Y250974D01*
X127785Y251664D01*
X134227Y258106D01*
X139515D01*
X140588Y258319D01*
X141497Y258927D01*
X152351Y269780D01*
X152958Y270690D01*
X153172Y271763D01*
Y283444D01*
X153368D01*
Y300444D01*
X153172D01*
Y327444D01*
X157564D01*
Y300444D01*
X157368D01*
Y283444D01*
X163368D01*
Y289140D01*
X177223D01*
X184093Y282270D01*
X184026Y281000D01*
X176944D01*
Y277044D01*
X174694D01*
X173621Y276830D01*
X173366Y276660D01*
X170676D01*
X169810Y276832D01*
X165310D01*
X164432Y276657D01*
X163688Y276160D01*
X163191Y275416D01*
X163016Y274538D01*
Y270038D01*
X163191Y269160D01*
X163656Y268464D01*
X164269Y267535D01*
X163965Y266819D01*
X163361Y265916D01*
X163012Y264160D01*
X163361Y262404D01*
X164356Y260916D01*
X165844Y259921D01*
X167600Y259572D01*
X169356Y259921D01*
X170844Y260916D01*
X171839Y262404D01*
X172188Y264160D01*
X171839Y265916D01*
X171210Y266856D01*
X170897Y267494D01*
X171489Y268501D01*
X171929Y269160D01*
X172104Y270038D01*
Y271052D01*
X174310D01*
X175383Y271266D01*
X175638Y271436D01*
X176944D01*
Y267000D01*
X196944D01*
Y271196D01*
X201343D01*
X201412Y271127D01*
Y269099D01*
X201325Y268969D01*
X201179Y268237D01*
Y265987D01*
X201325Y265255D01*
X201739Y264635D01*
Y263589D01*
X201325Y262969D01*
X201179Y262237D01*
Y259987D01*
X201325Y259255D01*
X201412Y259125D01*
Y257169D01*
X201047Y256804D01*
X196944D01*
Y261000D01*
X189944D01*
Y247000D01*
X196944D01*
Y251196D01*
X202208D01*
X203281Y251410D01*
X204191Y252017D01*
X206199Y254025D01*
X206806Y254935D01*
X207020Y256008D01*
Y259125D01*
X207107Y259255D01*
X207129Y259367D01*
X208424D01*
X208437Y259303D01*
X208851Y258683D01*
X209471Y258269D01*
X210203Y258123D01*
X212453D01*
X213185Y258269D01*
X213315Y258356D01*
X217771D01*
X218066Y257916D01*
X219554Y256921D01*
X221310Y256572D01*
X223066Y256921D01*
X224554Y257916D01*
X225549Y259404D01*
X225898Y261160D01*
X225549Y262916D01*
X224554Y264404D01*
X223066Y265399D01*
X221310Y265748D01*
X219554Y265399D01*
X218066Y264404D01*
X217771Y263964D01*
X214840D01*
X214173Y265234D01*
X214219Y265303D01*
X214365Y266035D01*
Y268285D01*
X214219Y269017D01*
X213805Y269637D01*
X213185Y270051D01*
X212453Y270197D01*
X210203D01*
X209471Y270051D01*
X209305Y269940D01*
X207020D01*
Y272288D01*
X206806Y273361D01*
X206199Y274271D01*
X204487Y275983D01*
X203577Y276590D01*
X202504Y276804D01*
X196944D01*
Y281000D01*
X196248D01*
Y298296D01*
X196034Y299369D01*
X195427Y300279D01*
X194344Y301361D01*
X194672Y302443D01*
X194863Y302638D01*
X196284Y303588D01*
X196543Y303975D01*
X197763Y303966D01*
X197815Y303704D01*
X198312Y302960D01*
X199056Y302463D01*
X199934Y302288D01*
X204434D01*
X205312Y302463D01*
X206056Y302960D01*
X206553Y303704D01*
X206728Y304582D01*
Y309082D01*
X206553Y309960D01*
X206056Y310704D01*
X205805Y310872D01*
X206190Y312142D01*
X234152D01*
Y309905D01*
X230636Y306389D01*
X230028Y305479D01*
X229815Y304406D01*
Y301663D01*
X229019Y301334D01*
X227661Y300292D01*
X226619Y298934D01*
X225275D01*
X224233Y300292D01*
X222875Y301334D01*
X221294Y301989D01*
X219597Y302212D01*
X217900Y301989D01*
X216319Y301334D01*
X214961Y300292D01*
X213919Y298934D01*
X213264Y297353D01*
X213041Y295656D01*
X213264Y293959D01*
X213919Y292378D01*
X214961Y291020D01*
X216319Y289978D01*
X217900Y289323D01*
X219597Y289100D01*
X221294Y289323D01*
X222875Y289978D01*
X224233Y291020D01*
X225275Y292378D01*
X226619D01*
X227661Y291020D01*
X229019Y289978D01*
X230600Y289323D01*
X232297Y289100D01*
X233994Y289323D01*
X235575Y289978D01*
X236933Y291020D01*
X237975Y292378D01*
X239319D01*
X240361Y291020D01*
X241719Y289978D01*
X243300Y289323D01*
X244997Y289100D01*
X246694Y289323D01*
X248275Y289978D01*
X249633Y291020D01*
X250675Y292378D01*
X252019D01*
X253061Y291020D01*
X254419Y289978D01*
X256000Y289323D01*
X257697Y289100D01*
X259394Y289323D01*
X260975Y289978D01*
X262333Y291020D01*
X263375Y292378D01*
X264030Y293959D01*
X264253Y295656D01*
X264030Y297353D01*
X263375Y298934D01*
X262333Y300292D01*
X260975Y301334D01*
X260501Y301530D01*
Y311912D01*
X265824D01*
X286144Y291592D01*
X305156Y274116D01*
X302775Y270690D01*
X297688Y264160D01*
X290576Y256921D01*
X282448Y249848D01*
X271249Y242376D01*
X259695Y236728D01*
X248845Y232784D01*
X240281Y230465D01*
X249936Y186944D01*
X249936Y186944D01*
X249936D01*
X248939Y186186D01*
X248234Y186017D01*
X236592Y184173D01*
X224841Y183248D01*
X218948Y183248D01*
X213055D01*
X201304Y184173D01*
X189662Y186017D01*
X178200Y188768D01*
X166990Y192411D01*
X156101Y196921D01*
X145598Y202273D01*
X135548Y208431D01*
X126012Y215360D01*
X117049Y223015D01*
X108715Y231349D01*
X101060Y240312D01*
X94131Y249848D01*
X87973Y259898D01*
X82621Y270401D01*
X78111Y281290D01*
X74468Y292500D01*
X71717Y303962D01*
X69873Y315604D01*
X68948Y327355D01*
X68948Y333248D01*
Y339142D01*
X69873Y350892D01*
X71717Y362534D01*
X74468Y373996D01*
X78111Y385206D01*
X82621Y396095D01*
X87973Y406598D01*
X94131Y416648D01*
X101060Y426184D01*
X108715Y435147D01*
X117049Y443481D01*
X126012Y451136D01*
X135548Y458065D01*
X145598Y464223D01*
X156101Y469575D01*
X166990Y474085D01*
X178200Y477728D01*
X189662Y480479D01*
X201304Y482323D01*
X213055Y483248D01*
X224841D01*
X236592Y482323D01*
D02*
G37*
%LPC*%
G36*
X232332Y474995D02*
X229956Y474682D01*
X227743Y473765D01*
X225842Y472306D01*
X224383Y470405D01*
X223466Y468192D01*
X223153Y465816D01*
X223466Y463440D01*
X224383Y461227D01*
X225842Y459326D01*
X227743Y457867D01*
X229956Y456950D01*
X232332Y456637D01*
X234708Y456950D01*
X236921Y457867D01*
X238822Y459326D01*
X240281Y461227D01*
X241198Y463440D01*
X241511Y465816D01*
X241198Y468192D01*
X240281Y470405D01*
X238822Y472306D01*
X236921Y473765D01*
X234708Y474682D01*
X232332Y474995D01*
D02*
G37*
G36*
X206932D02*
X204556Y474682D01*
X202343Y473765D01*
X200442Y472306D01*
X198983Y470405D01*
X198066Y468192D01*
X197754Y465816D01*
X198066Y463440D01*
X198806Y461655D01*
X191057Y453907D01*
X190450Y452997D01*
X190236Y451924D01*
Y451540D01*
X186040D01*
Y442540D01*
X200040D01*
Y451540D01*
X198281D01*
X197794Y452713D01*
X202771Y457690D01*
X204556Y456950D01*
X206932Y456637D01*
X209308Y456950D01*
X211521Y457867D01*
X213422Y459326D01*
X214881Y461227D01*
X215798Y463440D01*
X216110Y465816D01*
X215798Y468192D01*
X214881Y470405D01*
X213422Y472306D01*
X211521Y473765D01*
X209308Y474682D01*
X206932Y474995D01*
D02*
G37*
%LPD*%
D10*
X305216Y229832D02*
G03*
X286144Y450043I-86776J103416D01*
G01*
X276160Y258888D02*
X305216Y229832D01*
D11*
X180444Y274000D02*
D03*
X186944D02*
D03*
X193444D02*
D03*
Y254000D02*
D03*
X186944D02*
D03*
X180444D02*
D03*
D12*
X140368Y335944D02*
D03*
X145368D02*
D03*
X150368D02*
D03*
X155368D02*
D03*
X160368D02*
D03*
Y291944D02*
D03*
X155368D02*
D03*
X150368D02*
D03*
X145368D02*
D03*
X140368D02*
D03*
D13*
X215040Y437540D02*
D03*
X193040Y428040D02*
D03*
Y447040D02*
D03*
D14*
X219456Y342392D02*
D03*
D15*
X201956Y366892D02*
D03*
X206956D02*
D03*
X211956D02*
D03*
X216956D02*
D03*
X221956D02*
D03*
X226956D02*
D03*
X231956D02*
D03*
X236956D02*
D03*
Y317892D02*
D03*
X231956D02*
D03*
X226956D02*
D03*
X221956D02*
D03*
X216956D02*
D03*
X211956D02*
D03*
X206956D02*
D03*
X201956D02*
D03*
D16*
X243956Y359892D02*
D03*
Y354892D02*
D03*
Y349892D02*
D03*
Y344892D02*
D03*
Y339892D02*
D03*
Y334892D02*
D03*
Y329892D02*
D03*
Y324892D02*
D03*
X194956D02*
D03*
Y329892D02*
D03*
Y334892D02*
D03*
Y339892D02*
D03*
Y344892D02*
D03*
Y349892D02*
D03*
Y354892D02*
D03*
Y359892D02*
D03*
D17*
X260176Y362712D02*
D03*
X270176Y362712D02*
D03*
X260176Y349504D02*
D03*
X270176Y349504D02*
D03*
X271437Y328168D02*
D03*
X281432Y328168D02*
D03*
X197209Y407416D02*
D03*
X207204Y407416D02*
D03*
X220472Y395224D02*
D03*
X210472Y395224D02*
D03*
X220392Y383032D02*
D03*
X210392Y383032D02*
D03*
X171864Y375920D02*
D03*
X181864Y375920D02*
D03*
X171784Y364744D02*
D03*
X181784Y364744D02*
D03*
X171784Y353568D02*
D03*
X181784Y353568D02*
D03*
X157560Y272288D02*
D03*
X167560Y272288D02*
D03*
D18*
X260096Y338248D02*
D03*
X260096Y328248D02*
D03*
X258064Y407496D02*
D03*
X258064Y417496D02*
D03*
X270256Y407496D02*
D03*
X270256Y417496D02*
D03*
X236728Y392096D02*
D03*
X236728Y382096D02*
D03*
X197104Y384213D02*
D03*
X197104Y394208D02*
D03*
X140208Y360600D02*
D03*
X140208Y350600D02*
D03*
X202184Y296832D02*
D03*
X202184Y306832D02*
D03*
D19*
X259285Y393471D02*
D03*
X269035Y380721D02*
D03*
Y393471D02*
D03*
X259285Y380721D02*
D03*
D20*
X155448Y363680D02*
D03*
Y357680D02*
D03*
X204216Y267112D02*
D03*
Y261112D02*
D03*
X211328Y267160D02*
D03*
Y261160D02*
D03*
D21*
X155544Y349892D02*
D03*
X161544D02*
D03*
X145368Y279400D02*
D03*
X139368D02*
D03*
X139240Y273304D02*
D03*
X145240D02*
D03*
D22*
X220472Y395224D02*
Y403597D01*
X207509Y416560D02*
X220472Y403597D01*
X171864Y427540D02*
X182844Y416560D01*
X207509D01*
X193040Y447040D02*
Y451924D01*
X206932Y465816D01*
X228600Y403492D02*
Y413512D01*
X214072Y428040D02*
X228600Y413512D01*
X193040Y428040D02*
X214072D01*
X215040Y437540D02*
X229812D01*
X249856Y417496D01*
X171864Y427540D02*
X181864Y437540D01*
X215040D01*
X270397Y279605D02*
Y295656D01*
Y264651D02*
Y279605D01*
Y264651D02*
X276160Y258888D01*
X207424Y285496D02*
X260237D01*
X270397Y295656D01*
X202838Y290082D02*
X207424Y285496D01*
X202838Y290082D02*
Y296178D01*
X202184Y296832D02*
X202838Y296178D01*
X181160Y223520D02*
X186944Y229304D01*
X133232Y223520D02*
X181160D01*
X112776Y243976D02*
X133232Y223520D01*
X112776Y243976D02*
Y296206D01*
X123952Y307382D01*
Y351620D01*
X132932Y360600D02*
X140208D01*
X123952Y351620D02*
X132932Y360600D01*
X188534Y363564D02*
X192206Y359892D01*
X182964Y363564D02*
X188534D01*
X175672Y347818D02*
X185484D01*
X169548Y341694D02*
X175672Y347818D01*
X178384Y340360D02*
X183683D01*
X150368Y291944D02*
Y335944D01*
X219632Y228840D02*
X270397Y279605D01*
X219632Y196616D02*
Y228840D01*
X202184Y306832D02*
X202697Y306319D01*
X254811Y333534D02*
X260136Y328208D01*
X257697Y295656D02*
Y320790D01*
X248845Y329642D02*
X257697Y320790D01*
X244206Y329642D02*
X248845D01*
X243956Y329892D02*
X244206Y329642D01*
X253058Y333534D02*
X254811D01*
X251949Y334642D02*
X253058Y333534D01*
X244206Y334642D02*
X251949D01*
X243956Y324892D02*
X244747D01*
X244997Y324642D01*
Y295656D02*
Y324642D01*
X236956Y308743D02*
Y317892D01*
X232619Y304406D02*
X236956Y308743D01*
X232619Y295978D02*
Y304406D01*
X232297Y295656D02*
X232619Y295978D01*
X130317Y240211D02*
X144106Y254000D01*
X150368Y271763D02*
Y291944D01*
X139515Y260909D02*
X150368Y271763D01*
X133066Y260909D02*
X139515D01*
X121655Y249499D02*
X133066Y260909D01*
X144106Y254000D02*
X180444D01*
X211328Y261160D02*
X221310D01*
X243956Y334892D02*
X244206Y334642D01*
X254000Y338248D02*
X260096D01*
X252356Y339892D02*
X254000Y338248D01*
X243956Y339892D02*
X252356D01*
X127352Y291944D02*
X140368D01*
X171864Y375920D02*
Y427540D01*
X236728Y404368D02*
X249856Y417496D01*
X236728Y392096D02*
Y404368D01*
X192893Y427893D02*
X193040Y428040D01*
X183896Y307844D02*
Y333471D01*
X190067Y339642D01*
X194706D01*
X194956Y339892D01*
X183896Y307844D02*
X193444Y298296D01*
Y274000D02*
Y298296D01*
X183683Y340360D02*
X187965Y344642D01*
X194706D01*
X194956Y344892D01*
X187308Y349642D02*
X194706D01*
X185484Y347818D02*
X187308Y349642D01*
X160618Y341694D02*
X169548D01*
X160368Y341444D02*
X160618Y341694D01*
X160368Y335944D02*
Y341444D01*
X161544Y349892D02*
X165034Y353382D01*
X171598D01*
X171784Y353568D01*
X194706Y354642D02*
X194956Y354892D01*
X182858Y354642D02*
X194706D01*
X181784Y353568D02*
X182858Y354642D01*
X171824Y375880D02*
X171864Y375920D01*
X171824Y364784D02*
Y375880D01*
X171784Y364744D02*
X171824Y364784D01*
X192206Y359892D02*
X194956D01*
X181784Y364744D02*
X182964Y363564D01*
X178384Y291944D02*
X186944Y283384D01*
Y274000D02*
Y283384D01*
X160368Y291944D02*
X178384D01*
X194706Y349642D02*
X194956Y349892D01*
X186944Y229304D02*
X219632Y196616D01*
X186944Y229304D02*
Y254000D01*
X228600Y377747D02*
Y403492D01*
X226956Y376103D02*
X228600Y377747D01*
X226956Y366892D02*
Y376103D01*
X171158Y376626D02*
X171864Y375920D01*
X153066Y376626D02*
X171158D01*
X147512Y371072D02*
X153066Y376626D01*
X147512Y367904D02*
Y371072D01*
X140208Y360600D02*
X147512Y367904D01*
X155448Y363680D02*
Y370876D01*
X133160Y273304D02*
X139240D01*
X145240D02*
X145304Y273368D01*
Y279336D01*
X145368Y279400D01*
X170404Y258410D02*
X176154Y264160D01*
X167600D02*
Y272248D01*
X167560Y272288D02*
X167600Y272248D01*
X167560Y272288D02*
X169128Y273856D01*
X176154Y264160D02*
X183896D01*
X162663Y258410D02*
X170404D01*
X145288Y292024D02*
X145368Y291944D01*
Y279400D02*
Y291944D01*
X140230Y286306D02*
Y291806D01*
X139368Y285444D02*
X140230Y286306D01*
X139368Y279400D02*
Y285444D01*
X271397Y328208D02*
X271437Y328168D01*
X249856Y417496D02*
X258064D01*
X243956Y370956D02*
X250747Y377747D01*
Y384433D01*
X259285Y392971D01*
Y393471D01*
X243956Y359892D02*
Y370956D01*
X236728Y382096D02*
X244997D01*
X216956Y379596D02*
X220392Y383032D01*
X216956Y366892D02*
Y379596D01*
X220432Y395184D02*
X220472Y395224D01*
X220432Y383072D02*
Y395184D01*
X220392Y383032D02*
X220432Y383072D01*
X181864Y375920D02*
Y385064D01*
X131064Y350600D02*
X140208D01*
X183896Y264160D02*
X186194Y261862D01*
Y254750D02*
Y261862D01*
Y254750D02*
X186944Y254000D01*
X157560Y263512D02*
X162663Y258410D01*
X157560Y263512D02*
Y272288D01*
X155368Y281194D02*
X157524Y279038D01*
Y272324D02*
Y279038D01*
Y272324D02*
X157560Y272288D01*
X155368Y281194D02*
Y291944D01*
X211304Y267136D02*
X211328Y267160D01*
X204240Y267136D02*
X211304D01*
X204216Y267112D02*
X204240Y267136D01*
X258064Y417496D02*
X270256D01*
X270336Y417576D02*
X275660D01*
X270256Y417496D02*
X270336Y417576D01*
X275660D02*
X286512Y406724D01*
Y368808D02*
Y406724D01*
X280416Y362712D02*
X286512Y368808D01*
X270176Y362712D02*
X280416D01*
X270176Y349504D02*
Y362712D01*
X216956Y344892D02*
X219456Y342392D01*
X216956Y344892D02*
Y366892D01*
X219456Y342392D02*
X221956Y339892D01*
X243956D01*
X270256Y407496D02*
X275660Y402092D01*
Y387846D02*
Y402092D01*
X269035Y381221D02*
X275660Y387846D01*
X269035Y380721D02*
Y381221D01*
X258064Y407496D02*
X258675Y406885D01*
Y394081D02*
X259285Y393471D01*
X258675Y394081D02*
Y406885D01*
X269140Y373576D02*
Y380616D01*
X269035Y380721D02*
X269140Y380616D01*
X267421Y371856D02*
X269140Y373576D01*
X258064Y371856D02*
X267421D01*
X254293Y368085D02*
X258064Y371856D01*
X254293Y360589D02*
Y368085D01*
X174310Y273856D02*
X174694Y274240D01*
X169128Y273856D02*
X174310D01*
X174694Y274240D02*
X180204D01*
X193040Y306832D02*
X202184D01*
X211150Y260982D02*
X211328Y261160D01*
X202208Y254000D02*
X204216Y256008D01*
X202504Y274000D02*
X204216Y272288D01*
Y256008D02*
Y261112D01*
Y267112D02*
Y272288D01*
X180204Y274240D02*
X180444Y274000D01*
X193444Y254000D02*
X202208D01*
X193444Y274000D02*
X202504D01*
X155496Y349940D02*
Y357680D01*
X145368Y335944D02*
X150368D01*
X160368Y291944D02*
Y335944D01*
X201956Y317892D02*
X202070Y317778D01*
Y306946D02*
Y317778D01*
Y306946D02*
X202184Y306832D01*
X236728Y382096D02*
X236842Y381982D01*
Y367006D02*
Y381982D01*
Y367006D02*
X236956Y366892D01*
X210432Y395184D02*
X210472Y395224D01*
X210432Y383072D02*
Y395184D01*
X210392Y383032D02*
X210432Y383072D01*
X210392Y383032D02*
X211706Y381718D01*
Y367142D02*
Y381718D01*
Y367142D02*
X211956Y366892D01*
X208954Y403492D02*
X210472Y401974D01*
X208954Y403492D02*
Y405666D01*
X207204Y407416D02*
X208954Y405666D01*
X210472Y395224D02*
Y401974D01*
X197156Y407364D02*
X197209Y407416D01*
X197156Y394260D02*
Y407364D01*
X197104Y394208D02*
X197156Y394260D01*
X197104Y384213D02*
X206706Y374611D01*
Y367142D02*
Y374611D01*
Y367142D02*
X206956Y366892D01*
X188614Y375920D02*
X194642Y369892D01*
X201706D01*
X201956Y369642D01*
Y366892D02*
Y369642D01*
X181864Y375920D02*
X188614D01*
X155496Y349940D02*
X155544Y349892D01*
X155368Y335944D02*
X155456Y336032D01*
Y349804D01*
X155544Y349892D01*
X255564Y344892D02*
X260176Y349504D01*
X243956Y344892D02*
X255564D01*
X248845Y355142D02*
X254293Y360589D01*
X244206Y355142D02*
X248845D01*
X243956Y354892D02*
X244206Y355142D01*
X258426Y359066D02*
Y360962D01*
X249502Y350142D02*
X258426Y359066D01*
X244206Y350142D02*
X249502D01*
X258426Y360962D02*
X260176Y362712D01*
X243956Y349892D02*
X244206Y350142D01*
X140208Y350600D02*
X140288Y350520D01*
Y336024D02*
Y350520D01*
Y336024D02*
X140368Y335944D01*
X139368Y279400D02*
X139480Y279512D01*
D23*
X281432Y328168D02*
X298397Y311203D01*
Y286994D02*
Y311203D01*
D24*
Y286994D02*
X335353Y265748D01*
X260136Y328208D02*
X271397D01*
D25*
X305216Y229832D02*
Y231029D01*
X368948Y333248D02*
G03*
X368948Y333248I-150000J0D01*
G01*
D26*
X206932Y465816D02*
D03*
X219632Y196616D02*
D03*
X232332Y465816D02*
D03*
D27*
X244997Y295656D02*
D03*
X232297D02*
D03*
X219597D02*
D03*
X270397D02*
D03*
X257697D02*
D03*
X121655Y249499D02*
D03*
X130317Y240211D02*
D03*
D28*
X178384Y340360D02*
D03*
X127352Y291944D02*
D03*
X228600Y403492D02*
D03*
X155448Y370876D02*
D03*
X133160Y273304D02*
D03*
X167600Y264160D02*
D03*
X244997Y382096D02*
D03*
X181864Y385064D02*
D03*
X131064Y350600D02*
D03*
X221310Y261160D02*
D03*
X193040Y306832D02*
D03*
M02*
